<svg width="178" height="43" viewBox="0 0 178 43" fill="none" xmlns="http://www.w3.org/2000/svg">
<g clip-path="url(#clip0_193_709)">
<path d="M132.065 7.99823C134.071 6.0659 136.61 4.5877 139.555 3.79963C140.789 3.4657 142.037 3.27425 143.267 3.21191C139.892 3.71503 134.347 5.86554 132.065 7.99823Z" fill="#3B3B3B"/>
<path d="M127.492 16.7069C127.763 15.1486 128.278 13.6482 128.998 12.2503L128.993 12.2413C129.951 10.5762 134.626 8.28336 140.54 6.69838C146.45 5.1134 151.686 4.75278 153.416 5.69219C142.121 5.32265 128.067 13.0873 127.502 16.7158L127.492 16.7069Z" fill="#3B3B3B"/>
<path d="M136.214 33.6337C135.092 33.0594 134.041 32.3649 133.077 31.5635H133.082C133.003 31.4655 132.937 31.3587 132.904 31.2474C132.372 29.4353 138.099 26.3188 145.738 24.2663C153.381 22.2183 159.945 22.0402 160.478 23.8523C160.525 24.0126 160.53 24.1728 160.483 24.3509C152.147 22.4009 131.773 30.6285 136.214 33.6337Z" fill="#3B3B3B"/>
<path d="M130.889 29.3635C130.173 28.4954 129.547 27.5515 129.028 26.5409H129.033C128.406 24.435 135.11 20.7931 144.002 18.4112C152.894 16.0293 160.613 15.8022 161.235 17.9081C152.212 16.1806 127.714 25.1117 130.889 29.3635Z" fill="#3B3B3B"/>
<path d="M132.195 7.96775C133.322 6.86801 136.286 5.50558 139.909 4.53496C143.527 3.56433 146.791 3.24821 148.357 3.62667C139.287 3.94724 130.423 9.48601 129.002 12.242L129.007 12.2465C129.815 10.6703 130.886 9.22332 132.195 7.96775Z" fill="#3B3B3B"/>
<path d="M140.305 35.1253C138.879 34.7958 137.5 34.2927 136.214 33.6338C135.985 33.4913 135.836 33.3221 135.775 33.1218C135.326 31.5991 140.183 28.9189 146.598 27.1959C153.017 25.4774 158.631 25.3483 159.08 26.8709C159.141 27.0713 159.104 27.2939 158.987 27.5254C150.763 25.3394 134.821 33.7095 140.305 35.1253Z" fill="#3B3B3B"/>
<path d="M133.082 31.5636C132.287 30.9002 131.553 30.17 130.894 29.3686C130.81 29.2662 130.754 29.1505 130.716 29.0303C130.123 27.0357 136.448 23.5986 144.873 21.3413C153.297 19.0841 160.571 18.8793 161.165 20.8783C161.198 20.9985 161.212 21.1232 161.198 21.2523C152.568 19.1687 130.029 28.0374 133.082 31.5636Z" fill="#3B3B3B"/>
<path d="M127.905 23.7581C127.33 21.621 134.086 17.9079 143.137 15.4814C152.192 13.055 160.032 12.8279 160.668 14.9739C152.538 13.1574 127.779 21.6433 129.037 26.5407L129.032 26.5451C128.569 25.6636 128.195 24.7331 127.905 23.7581Z" fill="#3B3B3B"/>
<path d="M140.306 35.1254C139.792 34.9962 139.469 34.7914 139.385 34.5065C139.048 33.3711 142.667 31.4032 147.464 30.1164C152.26 28.8297 156.426 28.7095 156.762 29.8448C156.846 30.1298 156.683 30.4637 156.313 30.8288C149.273 29.3016 141.942 34.1058 143.981 35.2545C143.859 35.1832 143.775 35.0986 143.742 34.9962C143.536 34.3061 145.514 33.1708 148.155 32.4628C150.797 31.7549 153.106 31.7415 153.307 32.4317C153.513 33.1218 151.536 34.2571 148.894 34.9651C145.991 35.7487 143.05 35.7576 140.306 35.1254Z" fill="#3B3B3B"/>
<path d="M153.313 32.4319C153.519 33.122 151.541 34.2574 148.9 34.9653C146.259 35.6733 143.949 35.6911 143.748 34.9965C143.542 34.3019 145.52 33.171 148.161 32.4631C150.803 31.7552 153.108 31.7418 153.313 32.4319Z" fill="#3B3B3B"/>
<path d="M127.272 29.6755C122.62 28.3443 120.376 25.762 127.936 19.2841C135.5 12.8061 147.796 9.35125 158.633 8.09129C170.031 6.76899 184.416 8.61664 166.015 20.0499C165.024 20.6197 164.177 21.3766 163.537 20.6954C168.754 15.7401 166.744 10.9897 154.607 11.9068C142.476 12.8195 130.007 19.0748 126.59 23.5359C123.172 28.0015 127.623 28.9052 129.755 29.2169C130.133 29.2748 130.437 29.4484 130.428 29.7066C130.414 29.9649 129.773 29.9649 129.418 29.9649C129.063 29.9604 128.081 29.8892 127.272 29.6755Z" fill="#3B3B3B"/>
<path d="M141.412 9.33821C133.768 11.3907 127.634 14.6452 127.279 16.6353C127.143 17.4189 127.069 18.2203 127.05 19.0262C127.139 18.946 127.227 18.8659 127.316 18.7857C128.13 18.0778 128.999 17.4056 129.916 16.7644C131.496 15.5757 133.642 14.3603 136.077 13.2428C141.781 10.567 148.363 8.79059 154.689 7.81557C151.865 7.38816 146.947 7.85564 141.412 9.33821Z" fill="#3B3B3B"/>
<path d="M10.1401 18.9836C10.6982 18.9836 11.1013 19.1534 11.1013 19.8105V35.5504H15.0085V21.3461C15.0085 19.5668 14.7449 17.6621 11.613 17.6621H3.39552C0.271332 17.6621 0 19.5668 0 21.3461V35.5504H3.91493V19.8105C3.91493 19.1534 4.3103 18.9836 4.87622 18.9836H10.1401Z" fill="#3B3B3B"/>
<path d="M34.1221 35.5507L38.5176 20.3054C39.0758 18.4819 39.913 17.1973 42.1224 17.1973C44.735 17.1973 45.1691 18.9839 45.8591 21.1323L50.3399 35.5507H46.2079L44.5567 30.1244H37.5098L35.9439 35.5507H34.1221ZM44.0373 28.3895L41.8976 21.4276C41.5953 20.394 41.6341 19.7295 41.0294 19.7295C40.4169 19.7295 40.3317 20.4383 40.0681 21.4719L38.0215 28.3895H44.0373Z" fill="#3B3B3B"/>
<path d="M28.6777 35.548L24.3674 21.4248C24.065 20.3912 24.1116 19.7268 23.5069 19.7268C22.8944 19.7268 22.8092 20.4355 22.5456 21.4691L18.4136 35.5554H16.5918L20.9796 20.31C21.5378 18.4865 22.375 17.2019 24.5845 17.2019C27.197 17.2019 27.6311 18.9885 28.3211 21.1369L32.8097 35.5554H28.6777V35.548Z" fill="#3B3B3B"/>
<path d="M51.9258 35.5504V17.6621H55.8097V25.4509H62.9574V17.6621H66.9343V35.5504H62.9574V27.1858H55.8097V35.5504H51.9258Z" fill="#3B3B3B"/>
<path d="M81.3888 18.9836H73.9543C73.3807 18.9836 72.993 19.1534 72.993 19.8105V25.4435H79.9081V27.1858H72.993V32.9812C72.993 33.8081 73.5124 34.2215 74.4737 34.2215H81.9159V35.5504H72.0783C70.21 35.5504 69.0781 34.7235 69.0781 32.4054V21.3461C69.0781 19.5668 69.3417 17.6621 72.4736 17.6621H81.3888V18.9836Z" fill="#3B3B3B"/>
<path d="M88.8557 35.5504V18.9836H83.3438V17.6621H98.3523V18.9836H92.8404V35.5504H88.8557Z" fill="#3B3B3B"/>
<path d="M96.5059 35.5507L100.901 20.3054C101.467 18.4819 102.297 17.1973 104.514 17.1973C107.127 17.1973 107.561 18.9839 108.251 21.1323L112.732 35.5507H108.6L106.948 30.1244H99.9014L98.3354 35.5507H96.5059ZM106.421 28.3895L104.289 21.4276C103.987 20.394 104.033 19.7295 103.421 19.7295C102.809 19.7295 102.723 20.4383 102.467 21.4719L100.421 28.3895H106.421Z" fill="#3B3B3B"/>
</g>
<defs>
<clipPath id="clip0_193_709">
<rect width="174.821" height="32.366" fill="white" transform="translate(0 3.21191)"/>
</clipPath>
</defs>
</svg>
