<svg width="32" height="32" viewBox="0 0 32 32" fill="none" xmlns="http://www.w3.org/2000/svg">
<rect width="32" height="32" rx="16" fill="black"/>
<path fill-rule="evenodd" clip-rule="evenodd" d="M12.0595 12.0425C12.0595 9.83154 13.7922 8.00049 15.9771 8.00049C18.162 8.00049 19.8948 9.83154 19.8948 12.0425C19.8948 14.2529 18.162 16.0845 15.9771 16.0845C13.7922 16.0845 12.0595 14.2529 12.0595 12.0425ZM18.2234 19.7368C18.7878 19.5288 19.3232 19.2383 19.8095 18.8745C20.4652 18.3833 20.553 17.4634 20.0708 16.833C19.5911 16.2056 18.6832 16.0415 18.0317 16.5293C17.4337 16.9771 16.7136 17.2124 16.0171 17.1982C15.3173 17.1841 14.5651 16.916 13.9468 16.4443C13.3156 15.9629 12.3958 16.0518 11.9055 16.7085C11.4186 17.3604 11.5837 18.2681 12.2118 18.7471C12.6997 19.1191 13.2378 19.4238 13.8031 19.6499L12.1978 21.5723C11.6887 22.1816 11.7488 23.0996 12.3417 23.6328C12.948 24.1777 13.87 24.106 14.3901 23.4834L15.9769 21.5835L17.5638 23.4834C18.0839 24.106 19.006 24.1777 19.6122 23.6328C20.2051 23.0996 20.2653 22.1816 19.7562 21.5723L18.2234 19.7368ZM15.9999 13C16.5521 13 16.9999 12.5522 16.9999 12C16.9999 11.4478 16.5521 11 15.9999 11C15.4476 11 14.9999 11.4478 14.9999 12C14.9999 12.5522 15.4476 13 15.9999 13Z" fill="white"/>
</svg>
